<svg xmlns="http://www.w3.org/2000/svg" xmlns:xlink="http://www.w3.org/1999/xlink" version="1.1" x="0px" y="0px" viewBox="0 0 100 125" enable-background="new 0 0 100 100" xml:space="preserve"><g><path d="M79.989,40.819c-1.283-0.191-2.563,0.128-3.607,0.901c-1.047,0.776-1.729,1.911-1.919,3.198   c-0.395,2.652,1.443,5.132,4.096,5.527c0.001,0,0.001,0,0.001,0c0.244,0.036,0.487,0.054,0.729,0.054   c1.037,0,2.043-0.33,2.889-0.957c1.044-0.773,1.724-1.907,1.913-3.192c0.192-1.286-0.128-2.57-0.902-3.615   C82.414,41.69,81.277,41.009,79.989,40.819z M83.103,46.204c-0.151,1.021-0.691,1.921-1.52,2.536   c-0.83,0.615-1.852,0.87-2.877,0.717h0.001c-2.108-0.314-3.568-2.284-3.256-4.392c0.151-1.022,0.693-1.924,1.525-2.541   c0.831-0.614,1.85-0.868,2.865-0.716c1.024,0.151,1.928,0.692,2.543,1.523S83.255,45.181,83.103,46.204z"/><path d="M89.141,60.367c-0.054-0.487-0.261-0.943-0.597-1.317l-6.206-6.96c-0.053-0.059-0.121-0.102-0.196-0.127   c-1.369-0.986-3.353-1.084-4.194-0.911l-5.84-2.92l-6.558-6.988l1.276-6.218l14.109,2.957c0.034,0.007,0.068,0.011,0.103,0.011   c0.097,0,0.191-0.028,0.273-0.082c0.111-0.072,0.188-0.186,0.216-0.316l4.032-19.251c0.057-0.271-0.116-0.535-0.387-0.592   l-28.368-5.946c-0.264-0.057-0.536,0.116-0.592,0.387l-4.035,19.252c-0.027,0.13-0.002,0.265,0.07,0.376   c0.073,0.111,0.187,0.189,0.316,0.216l13.675,2.866l-1.221,5.942c-0.139-0.02-0.284,0.012-0.398,0.111l-2.227,1.936   c-0.203,0.177-0.229,0.483-0.061,0.692l1.694,2.091l-0.457,2.225l0.588,0.121l0.357-1.743l4.367,5.392   c0.198,0.226,0.438,0.412,0.719,0.557l5.51,2.759c-0.025,2.004-0.126,12.011-0.115,12.044l-1.586,9.822l-0.841,11.991   c-0.019,0.268,0.178,0.503,0.444,0.532l3.639,0.403c0.019,0.002,0.037,0.003,0.056,0.003c0.244,0,0.456-0.179,0.493-0.426   l1.952-12.858l1.935,12.351c0.043,0.269,0.301,0.468,0.561,0.418l3.567-0.48c0.27-0.036,0.46-0.279,0.431-0.549l-2.31-21.221   c0.001-0.032,0.053-4.338,0.079-6.558l1.153,1.299l1.424,8.293c0.045,0.261,0.29,0.441,0.549,0.412l2.657-0.297   c0.264-0.029,0.458-0.26,0.443-0.524L89.141,60.367z M57.089,12.787l27.39,5.741l-3.827,18.273l-27.393-5.74L57.089,12.787z    M86.899,69.315l-1.368-7.97c-0.017-0.092-0.058-0.178-0.119-0.247l-2.106-2.371c-0.137-0.155-0.357-0.206-0.549-0.137   c-0.193,0.072-0.322,0.256-0.325,0.463c0,0-0.093,7.737-0.092,7.904l2.26,20.801L82,88.109l-2.344-14.963   c-0.038-0.243-0.247-0.422-0.493-0.423h-0.001c-0.245,0-0.454,0.178-0.493,0.42l-2.385,15.487l-2.684-0.298l0.802-11.467   l1.587-9.865c-0.003-0.339,0.117-12.159,0.124-12.384c0.017-0.203-0.092-0.395-0.274-0.486l-5.784-2.896   c-0.164-0.085-0.306-0.194-0.408-0.31l-6.232-7.696l1.499-1.303l6.526,6.955c0.04,0.043,0.088,0.079,0.141,0.105l6.09,3.045   c0.124,0.062,0.281,0.063,0.411,0.017c0.327-0.121,2.333-0.162,3.56,0.789c0.019,0.014,0.037,0.026,0.057,0.037l6.102,6.843   c0.197,0.219,0.317,0.481,0.346,0.732l0.474,8.674L86.899,69.315z"/><path d="M45.732,49.534c0.774,1.044,1.908,1.724,3.193,1.914c0.241,0.036,0.482,0.054,0.72,0.054c2.371,0,4.455-1.739,4.814-4.153   c0.393-2.652-1.449-5.132-4.104-5.527c-1.285-0.19-2.566,0.129-3.611,0.904c-1.045,0.775-1.726,1.91-1.915,3.196   C44.637,47.207,44.958,48.49,45.732,49.534z M45.817,46.068c0.151-1.022,0.692-1.924,1.522-2.54   c0.673-0.499,1.47-0.761,2.291-0.761c0.191,0,0.384,0.014,0.577,0.043c2.111,0.314,3.575,2.285,3.264,4.391   c-0.315,2.11-2.287,3.571-4.399,3.258c-1.021-0.152-1.922-0.692-2.537-1.521C45.92,48.109,45.665,47.09,45.817,46.068z"/><path d="M64.007,49.607c-0.201-0.169-0.498-0.154-0.683,0.035l-5.182,5.375l-6.229-2.938c-0.646-0.354-2.706-0.489-3.08-0.385   l-6.684,0.794l-4.235-5.759c-0.158-0.215-0.459-0.266-0.678-0.121l-2.464,1.629c-0.224,0.147-0.291,0.445-0.153,0.674l4.412,7.347   c0.436,0.659,1.169,1.053,1.961,1.053c0.082,0,0.169-0.002,0.234-0.013l4.456-0.514c0,0-0.093,10.862-0.081,10.96l0.004,0.034   l-2.494,9.286c-0.051,0.202-0.081,0.416-0.091,0.659l0.071,11.955c0.002,0.27,0.217,0.489,0.486,0.497l3.82,0.107   c0.279,0.001,0.496-0.2,0.513-0.47l0.711-11.611l0.712-2.649l0.361,2.823l2.616,11.709c0.052,0.231,0.258,0.391,0.487,0.391   c0.028,0,0.057-0.002,0.085-0.007l3.376-0.578c0.263-0.045,0.444-0.288,0.412-0.553l-1.433-11.846l-1.27-10.027l0.087-9.181   l3.681,1.74c0.947,0.453,2.127,0.199,2.822-0.631l5.538-7.414c0.159-0.212,0.124-0.511-0.078-0.682L64.007,49.607z M59.776,58.776   c-0.385,0.459-1.059,0.612-1.61,0.348l-4.388-2.075c-0.155-0.073-0.335-0.063-0.479,0.028s-0.232,0.249-0.234,0.419   c0,0-0.092,10.098-0.082,10.136l1.265,9.985l1.375,11.371l-2.438,0.417L50.68,78.206l-0.676-5.289   c-0.03-0.236-0.224-0.419-0.462-0.436c-0.012-0.001-0.023-0.001-0.034-0.001c-0.225,0-0.424,0.15-0.482,0.37l-1.382,5.144   c-0.009,0.032-0.015,0.065-0.017,0.1l-0.685,11.179l-2.854-0.08l-0.068-11.447c0.006-0.151,0.026-0.298,0.059-0.427l2.516-9.367   c0.015-0.055,0.094-11.721,0.094-11.721c0.001-0.144-0.059-0.28-0.165-0.377c-0.106-0.096-0.242-0.139-0.393-0.125l-5.02,0.578   c-0.007,0.001-0.111,0.006-0.119,0.007c-0.456,0-0.877-0.226-1.115-0.586l-4.154-6.918l1.668-1.103l4.126,5.61   c0.106,0.145,0.282,0.225,0.461,0.2l7.036-0.841c0.32-0.059,2.032,0.069,2.446,0.295l6.581,3.104   c0.189,0.091,0.423,0.05,0.573-0.105l5.105-5.296l1.295,1.089L59.776,58.776z"/><path d="M19.858,51.629c0.235,0,0.474-0.017,0.714-0.052v-0.001c1.286-0.19,2.422-0.871,3.196-1.916   c0.774-1.045,1.095-2.329,0.902-3.615c-0.396-2.654-2.867-4.492-5.528-4.096c-2.654,0.396-4.495,2.876-4.102,5.528   C15.4,49.89,17.485,51.629,19.858,51.629z M19.291,42.938c0.191-0.029,0.383-0.042,0.571-0.042c1.881,0,3.534,1.38,3.82,3.297   c0.152,1.022-0.103,2.042-0.718,2.872s-1.517,1.371-2.539,1.522c-2.106,0.317-4.082-1.149-4.396-3.257   C15.718,45.224,17.181,43.253,19.291,42.938z"/><path d="M35.596,41.517l-2.569-1.071c-0.057-0.024-0.116-0.034-0.175-0.036l-2.008-7.209l13.786-3.735   c0.128-0.035,0.237-0.119,0.303-0.233c0.066-0.115,0.084-0.252,0.049-0.38L39.837,9.869c-0.072-0.266-0.342-0.427-0.613-0.352   l-27.979,7.577c-0.128,0.035-0.237,0.119-0.303,0.233c-0.066,0.115-0.084,0.252-0.049,0.38l5.145,18.988   c0.061,0.223,0.262,0.369,0.482,0.369c0.043,0,0.087-0.005,0.131-0.018l13.614-3.688l2.07,7.433l-3.802,7.975l-6.454,2.914   c-0.624-0.094-2.239-0.127-3.619,0.837l-7.055,4.99c-0.592,0.422-0.949,1.079-0.982,1.822l-0.066,10.063   c-0.002,0.268,0.208,0.489,0.477,0.502l2.854,0.137c0.273,0.037,0.497-0.187,0.521-0.452l0.841-8.897l1.92-1.355   c0.063,5.167,0.106,8.079,0.13,8.678L15.78,77.42l-1.567,11.892c-0.035,0.267,0.146,0.513,0.411,0.559l3.633,0.623   c0.029,0.005,0.058,0.007,0.086,0.007c0.231,0,0.438-0.162,0.488-0.396l2.502-11.836l0.368-2.63l0.681,2.518l0.797,11.659   c0.02,0.268,0.255,0.455,0.513,0.466l3.663-0.102c0.269-0.008,0.483-0.226,0.486-0.494l0.15-11.975   c-0.006-0.221-0.038-0.44-0.096-0.653l-2.498-9.307c-0.004-1.073-0.084-10.285-0.137-12.355l6.035-2.727   c0.546-0.245,0.973-0.684,1.211-1.256l3.366-9.263C35.965,41.898,35.842,41.62,35.596,41.517z M11.988,17.929l27.015-7.315   l4.883,18.019l-27.015,7.319L11.988,17.929z M31.575,51.049c-0.131,0.314-0.376,0.566-0.69,0.707l-6.339,2.864   c-0.208,0.095-0.331,0.281-0.291,0.507c0.04,0.54,0.146,12.77,0.161,12.822l2.514,9.367c0.037,0.137,0.058,0.278,0.062,0.401   l-0.145,11.475l-2.703,0.075l-0.78-11.276l-1.336-4.975c-0.061-0.229-0.262-0.392-0.514-0.369c-0.237,0.015-0.431,0.194-0.464,0.43   l-0.701,5.018l-2.396,11.331l-2.685-0.46l1.504-11.411c0,0,1.328-9.532,1.326-9.566c-0.021-0.298-0.095-5.92-0.14-9.626   c-0.002-0.186-0.107-0.355-0.272-0.439c-0.166-0.083-0.363-0.069-0.516,0.037l-2.885,2.036c-0.119,0.084-0.196,0.216-0.21,0.361   l-0.817,8.651l-1.898-0.091l0.063-9.563c0.019-0.415,0.225-0.791,0.563-1.032l7.051-4.987c1.233-0.861,3.204-0.631,3.312-0.679   l6.765-3.054c0.107-0.048,0.194-0.134,0.245-0.24l3.725-7.81l1.689,0.705L31.575,51.049z"/><path d="M33.982,19.211l-4.789,1.292l-2.71-4.155c-0.07-0.109-0.205-0.16-0.329-0.125c-0.126,0.034-0.215,0.145-0.222,0.274   l-0.251,4.954l-4.788,1.292c-0.126,0.034-0.215,0.145-0.222,0.274s0.071,0.249,0.192,0.295l4.635,1.77l-0.251,4.954   c-0.007,0.13,0.071,0.249,0.192,0.295c0.035,0.013,0.071,0.02,0.107,0.02c0.089,0,0.176-0.04,0.233-0.111l3.115-3.861l4.634,1.769   c0.122,0.045,0.26,0.009,0.341-0.092c0.082-0.101,0.089-0.244,0.018-0.353l-2.71-4.155l3.115-3.86   c0.082-0.101,0.089-0.244,0.018-0.353C34.241,19.228,34.107,19.176,33.982,19.211z M30.575,23.342   c-0.082,0.101-0.089,0.244-0.018,0.353l2.324,3.564l-3.975-1.518c-0.122-0.046-0.26-0.01-0.341,0.092l-2.672,3.312l0.215-4.25   c0.007-0.13-0.071-0.249-0.192-0.295l-3.976-1.518l4.107-1.108c0.126-0.034,0.215-0.145,0.222-0.274l0.215-4.25l2.325,3.565   c0.07,0.108,0.202,0.159,0.329,0.125l4.107-1.109L30.575,23.342z"/><path d="M69.551,23.746c0.235,0.053,0.472,0.078,0.704,0.078c1.472,0,2.805-1.02,3.14-2.516c0.387-1.731-0.706-3.456-2.438-3.844   c-0.839-0.189-1.702-0.038-2.428,0.423c-0.726,0.46-1.229,1.176-1.417,2.015s-0.038,1.701,0.423,2.427   C67.996,23.055,68.712,23.558,69.551,23.746z M67.698,20.033c0.152-0.682,0.562-1.264,1.152-1.639   c0.426-0.27,0.907-0.409,1.398-0.409c0.192,0,0.385,0.021,0.577,0.064c1.408,0.315,2.298,1.719,1.982,3.127   c-0.315,1.409-1.719,2.293-3.127,1.982c-0.683-0.152-1.265-0.562-1.64-1.152S67.545,20.716,67.698,20.033z"/><rect x="70.928" y="29.175" transform="matrix(-0.976 -0.218 0.218 -0.976 134.0483 76.2299)" width="0.6" height="3.094"/><rect x="64.757" y="27.793" transform="matrix(-0.976 -0.218 0.218 -0.976 122.1559 72.1554)" width="0.6" height="3.094"/><path d="M72.404,25.104c-0.943-0.45-1.929-0.791-2.931-1.015c-0.982-0.22-1.999-0.332-3.022-0.332c-0.021,0-0.041,0-0.062,0   c-2.001,0.013-3.352,1.148-3.704,3.116l-0.618,3.396l0.59,0.107l0.618-3.396c0.387-2.154,1.909-2.615,3.117-2.623   c0.021,0,0.04,0,0.06,0c0.979,0,1.951,0.107,2.891,0.317c0.958,0.214,1.9,0.541,2.803,0.971c1.091,0.522,2.271,1.589,1.7,3.702   l-0.888,3.335l0.58,0.154l0.888-3.334C74.946,27.572,74.21,25.969,72.404,25.104z"/></g><text x="0" y="115" fill="#000000" font-size="5px" font-weight="bold" font-family="'Helvetica Neue', Helvetica, Arial-Unicode, Arial, Sans-serif">Created by Juan Pablo Bravo</text><text x="0" y="120" fill="#000000" font-size="5px" font-weight="bold" font-family="'Helvetica Neue', Helvetica, Arial-Unicode, Arial, Sans-serif">from the Noun Project</text></svg>